<svg width="122" height="114" viewBox="0 0 122 114" fill="none" xmlns="http://www.w3.org/2000/svg">
<g filter="url(#filter0_d_397_1179)">
<path d="M4.8813 47.0155C7.24995 33.7023 14.2745 21.6647 24.7002 13.0532C35.1259 4.44161 48.2736 -0.182954 61.7947 0.00555911C75.3157 0.19408 88.3293 5.1834 98.5109 14.0823C108.692 22.9811 115.379 35.2099 117.375 48.584L61 57L4.8813 47.0155Z" fill="white"/>
<circle cx="60.6138" cy="56.7318" r="44.9512" fill="#08AFDD"/>
<path d="M55.0198 53.0135C54.0171 53.0135 53.1531 52.8482 52.4278 52.5175C51.7024 52.1868 51.1371 51.7015 50.7318 51.0615C50.3371 50.4215 50.1184 49.6268 50.0758 48.6775C50.0651 48.2402 50.0598 47.7708 50.0598 47.2695C50.0598 46.7682 50.0651 46.2882 50.0758 45.8295C50.1184 44.9015 50.3424 44.1122 50.7478 43.4615C51.1531 42.8108 51.7184 42.3202 52.4438 41.9895C53.1691 41.6588 54.0278 41.4935 55.0198 41.4935C55.7238 41.4935 56.3744 41.5842 56.9718 41.7655C57.5691 41.9362 58.0918 42.1922 58.5398 42.5335C58.9878 42.8642 59.3344 43.2695 59.5798 43.7495C59.8358 44.2188 59.9691 44.7522 59.9798 45.3495C59.9904 45.4455 59.9584 45.5255 59.8838 45.5895C59.8198 45.6535 59.7398 45.6855 59.6438 45.6855H57.4838C57.3451 45.6855 57.2384 45.6588 57.1638 45.6055C57.0891 45.5415 57.0251 45.4295 56.9718 45.2695C56.8224 44.7042 56.5771 44.3202 56.2358 44.1175C55.9051 43.9042 55.4944 43.7975 55.0038 43.7975C54.4171 43.7975 53.9531 43.9628 53.6118 44.2935C53.2704 44.6135 53.0838 45.1522 53.0518 45.9095C53.0198 46.7842 53.0198 47.6802 53.0518 48.5975C53.0838 49.3548 53.2704 49.8988 53.6118 50.2295C53.9531 50.5495 54.4171 50.7095 55.0038 50.7095C55.4944 50.7095 55.9104 50.6028 56.2518 50.3895C56.5931 50.1762 56.8331 49.7922 56.9718 49.2375C57.0144 49.0775 57.0731 48.9708 57.1478 48.9175C57.2331 48.8535 57.3451 48.8215 57.4838 48.8215H59.6438C59.7398 48.8215 59.8198 48.8535 59.8838 48.9175C59.9584 48.9815 59.9904 49.0615 59.9798 49.1575C59.9691 49.7548 59.8358 50.2935 59.5798 50.7735C59.3344 51.2428 58.9878 51.6482 58.5398 51.9895C58.0918 52.3202 57.5691 52.5762 56.9718 52.7575C56.3744 52.9282 55.7238 53.0135 55.0198 53.0135ZM66.2381 53.0135C65.2568 53.0135 64.4035 52.8535 63.6781 52.5335C62.9528 52.2135 62.3875 51.7335 61.9821 51.0935C61.5768 50.4428 61.3528 49.6322 61.3101 48.6615C61.2995 48.2028 61.2941 47.7442 61.2941 47.2855C61.2941 46.8162 61.2995 46.3522 61.3101 45.8935C61.3528 44.9335 61.5768 44.1282 61.9821 43.4775C62.3981 42.8162 62.9688 42.3202 63.6941 41.9895C64.4301 41.6588 65.2781 41.4935 66.2381 41.4935C67.2088 41.4935 68.0568 41.6588 68.7821 41.9895C69.5075 42.3202 70.0781 42.8162 70.4941 43.4775C70.9101 44.1282 71.1341 44.9335 71.1661 45.8935C71.1875 46.3522 71.1981 46.8162 71.1981 47.2855C71.1981 47.7442 71.1875 48.2028 71.1661 48.6615C71.1341 49.6322 70.9101 50.4428 70.4941 51.0935C70.0888 51.7335 69.5235 52.2135 68.7981 52.5335C68.0728 52.8535 67.2195 53.0135 66.2381 53.0135ZM66.2381 50.7095C66.8035 50.7095 67.2621 50.5388 67.6141 50.1975C67.9768 49.8562 68.1688 49.3122 68.1901 48.5655C68.2115 48.0962 68.2221 47.6535 68.2221 47.2375C68.2221 46.8215 68.2115 46.3895 68.1901 45.9415C68.1688 45.4402 68.0728 45.0348 67.9021 44.7255C67.7421 44.4055 67.5181 44.1708 67.2301 44.0215C66.9421 43.8722 66.6115 43.7975 66.2381 43.7975C65.8755 43.7975 65.5501 43.8722 65.2621 44.0215C64.9741 44.1708 64.7448 44.4055 64.5741 44.7255C64.4035 45.0348 64.3075 45.4402 64.2861 45.9415C64.2755 46.3895 64.2701 46.8215 64.2701 47.2375C64.2701 47.6535 64.2755 48.0962 64.2861 48.5655C64.3181 49.3122 64.5101 49.8562 64.8621 50.1975C65.2248 50.5388 65.6835 50.7095 66.2381 50.7095ZM48.9687 71.0135C48.1474 71.0135 47.438 70.9175 46.8407 70.7255C46.254 70.5228 45.774 70.2668 45.4007 69.9575C45.0274 69.6375 44.75 69.3015 44.5687 68.9495C44.3874 68.5868 44.2914 68.2402 44.2807 67.9095C44.2807 67.8135 44.3127 67.7335 44.3767 67.6695C44.4514 67.6055 44.5367 67.5735 44.6327 67.5735H46.7287C46.846 67.5735 46.942 67.6002 47.0167 67.6535C47.0914 67.6962 47.1607 67.7708 47.2247 67.8775C47.31 68.0802 47.4327 68.2455 47.5927 68.3735C47.7634 68.5015 47.966 68.5922 48.2007 68.6455C48.4354 68.6882 48.6914 68.7095 48.9687 68.7095C49.5127 68.7095 49.934 68.5868 50.2327 68.3415C50.542 68.0855 50.6967 67.7388 50.6967 67.3015C50.6967 66.8428 50.5527 66.5175 50.2647 66.3255C49.9767 66.1228 49.566 66.0215 49.0327 66.0215H47.2567C47.1394 66.0215 47.0434 65.9842 46.9687 65.9095C46.894 65.8348 46.8567 65.7388 46.8567 65.6215V64.7255C46.8567 64.5975 46.8834 64.4855 46.9367 64.3895C46.99 64.2935 47.0487 64.2242 47.1127 64.1815L49.7367 61.9575H45.2887C45.182 61.9575 45.086 61.9202 45.0007 61.8455C44.926 61.7708 44.8887 61.6748 44.8887 61.5575V60.0535C44.8887 59.9362 44.926 59.8402 45.0007 59.7655C45.086 59.6908 45.182 59.6535 45.2887 59.6535H52.6487C52.766 59.6535 52.862 59.6908 52.9367 59.7655C53.022 59.8402 53.0647 59.9362 53.0647 60.0535V61.4135C53.0647 61.5308 53.038 61.6375 52.9847 61.7335C52.9314 61.8188 52.8727 61.8882 52.8087 61.9415L50.3767 64.1975L50.4887 64.2295C51.1074 64.3042 51.6514 64.4642 52.1207 64.7095C52.6007 64.9548 52.9794 65.3068 53.2567 65.7655C53.534 66.2135 53.6727 66.7842 53.6727 67.4775C53.6727 68.2028 53.4647 68.8322 53.0487 69.3655C52.6434 69.8882 52.0887 70.2935 51.3847 70.5815C50.6807 70.8695 49.8754 71.0135 48.9687 71.0135ZM57.0996 70.8535C57.0036 70.8535 56.9236 70.8215 56.8596 70.7575C56.7956 70.6828 56.7636 70.5975 56.7636 70.5015C56.7636 70.4482 56.7689 70.4055 56.7796 70.3735C56.8009 70.3415 56.8169 70.3148 56.8276 70.2935L59.0836 67.2055C58.9342 67.2375 58.7796 67.2535 58.6196 67.2535C58.1396 67.2215 57.6702 67.1148 57.2116 66.9335C56.7529 66.7415 56.3369 66.4855 55.9636 66.1655C55.6009 65.8348 55.3129 65.4455 55.0996 64.9975C54.8862 64.5495 54.7796 64.0482 54.7796 63.4935C54.7796 62.9815 54.8756 62.4908 55.0676 62.0215C55.2596 61.5415 55.5476 61.1148 55.9316 60.7415C56.3156 60.3575 56.7902 60.0535 57.3556 59.8295C57.9316 59.6055 58.5982 59.4935 59.3556 59.4935C60.1236 59.4935 60.7956 59.5948 61.3716 59.7975C61.9582 59.9895 62.4489 60.2668 62.8436 60.6295C63.2382 60.9815 63.5369 61.3975 63.7396 61.8775C63.9422 62.3468 64.0436 62.8482 64.0436 63.3815C64.0436 63.8722 63.9529 64.3255 63.7716 64.7415C63.6009 65.1575 63.3876 65.5522 63.1316 65.9255C62.8862 66.2882 62.6302 66.6562 62.3636 67.0295L59.8036 70.5335C59.7609 70.5868 59.6969 70.6562 59.6116 70.7415C59.5262 70.8162 59.3982 70.8535 59.2276 70.8535H57.0996ZM59.3876 65.1415C59.7076 65.1415 59.9956 65.0775 60.2516 64.9495C60.5076 64.8108 60.7102 64.6188 60.8596 64.3735C61.0089 64.1282 61.0836 63.8295 61.0836 63.4775C61.0836 63.1255 61.0089 62.8268 60.8596 62.5815C60.7102 62.3255 60.5076 62.1335 60.2516 62.0055C59.9956 61.8668 59.7076 61.7975 59.3876 61.7975C59.0782 61.7975 58.7956 61.8668 58.5396 62.0055C58.2836 62.1335 58.0809 62.3255 57.9316 62.5815C57.7822 62.8268 57.7076 63.1255 57.7076 63.4775C57.7076 63.8295 57.7822 64.1282 57.9316 64.3735C58.0809 64.6188 58.2836 64.8108 58.5396 64.9495C58.7956 65.0775 59.0782 65.1415 59.3876 65.1415ZM66.3576 70.8535C66.1122 70.8535 65.9896 70.7468 65.9896 70.5335C65.9896 70.4695 66.0109 70.4108 66.0536 70.3575L73.9576 59.9575C74.0322 59.8615 74.1069 59.7868 74.1816 59.7335C74.2562 59.6802 74.3682 59.6535 74.5176 59.6535H75.6536C75.8989 59.6535 76.0216 59.7602 76.0216 59.9735C76.0216 60.0375 76.0002 60.0962 75.9576 60.1495L68.0536 70.5495C67.9789 70.6455 67.9042 70.7202 67.8296 70.7735C67.7549 70.8268 67.6429 70.8535 67.4936 70.8535H66.3576ZM74.4056 70.9335C73.6802 70.9335 73.0989 70.7415 72.6616 70.3575C72.2349 69.9735 71.9949 69.4615 71.9416 68.8215C71.9309 68.5442 71.9256 68.2988 71.9256 68.0855C71.9256 67.8722 71.9309 67.6162 71.9416 67.3175C71.9842 66.6668 72.2136 66.1495 72.6296 65.7655C73.0562 65.3708 73.6482 65.1735 74.4056 65.1735C75.1736 65.1735 75.7656 65.3708 76.1816 65.7655C76.5976 66.1495 76.8269 66.6668 76.8696 67.3175C76.8909 67.6162 76.9016 67.8722 76.9016 68.0855C76.9016 68.2988 76.8909 68.5442 76.8696 68.8215C76.8269 69.4615 76.5869 69.9735 76.1496 70.3575C75.7122 70.7415 75.1309 70.9335 74.4056 70.9335ZM74.4056 69.5255C74.5869 69.5255 74.7256 69.4882 74.8216 69.4135C74.9282 69.3282 75.0082 69.2268 75.0616 69.1095C75.1149 68.9815 75.1469 68.8535 75.1576 68.7255C75.1789 68.4802 75.1896 68.2562 75.1896 68.0535C75.1896 67.8508 75.1789 67.6322 75.1576 67.3975C75.1469 67.1948 75.0829 67.0135 74.9656 66.8535C74.8589 66.6828 74.6722 66.5975 74.4056 66.5975C74.1496 66.5975 73.9629 66.6828 73.8456 66.8535C73.7389 67.0135 73.6802 67.1948 73.6696 67.3975C73.6589 67.6322 73.6536 67.8508 73.6536 68.0535C73.6536 68.2562 73.6589 68.4802 73.6696 68.7255C73.6802 68.8535 73.7069 68.9815 73.7496 69.1095C73.8029 69.2268 73.8829 69.3282 73.9896 69.4135C74.0962 69.4882 74.2349 69.5255 74.4056 69.5255ZM67.6376 65.3015C66.9016 65.3015 66.3149 65.1148 65.8776 64.7415C65.4509 64.3575 65.2162 63.8455 65.1736 63.2055C65.1522 62.9282 65.1416 62.6828 65.1416 62.4695C65.1522 62.2562 65.1629 62.0002 65.1736 61.7015C65.2056 61.0615 65.4296 60.5495 65.8456 60.1655C66.2722 59.7708 66.8696 59.5735 67.6376 59.5735C68.4056 59.5735 68.9976 59.7708 69.4136 60.1655C69.8296 60.5495 70.0536 61.0615 70.0856 61.7015C70.1069 62.0002 70.1176 62.2562 70.1176 62.4695C70.1176 62.6828 70.1069 62.9282 70.0856 63.2055C70.0536 63.8455 69.8189 64.3575 69.3816 64.7415C68.9442 65.1148 68.3629 65.3015 67.6376 65.3015ZM67.6376 63.9095C67.8082 63.9095 67.9469 63.8722 68.0536 63.7975C68.1602 63.7228 68.2402 63.6268 68.2936 63.5095C68.3469 63.3815 68.3736 63.2535 68.3736 63.1255C68.3949 62.8802 68.4056 62.6562 68.4056 62.4535C68.4056 62.2508 68.3949 62.0322 68.3736 61.7975C68.3629 61.5948 68.2989 61.4135 68.1816 61.2535C68.0749 61.0828 67.8936 60.9975 67.6376 60.9975C67.3709 60.9975 67.1842 61.0828 67.0776 61.2535C66.9709 61.4135 66.9069 61.5948 66.8856 61.7975C66.8749 62.0322 66.8696 62.2508 66.8696 62.4535C66.8696 62.6562 66.8749 62.8802 66.8856 63.1255C66.9069 63.2535 66.9389 63.3815 66.9816 63.5095C67.0242 63.6268 67.0989 63.7228 67.2056 63.7975C67.3122 63.8722 67.4562 63.9095 67.6376 63.9095Z" fill="white"/>
</g>
<defs>
<filter id="filter0_d_397_1179" x="0.881348" y="0" width="120.494" height="109.683" filterUnits="userSpaceOnUse" color-interpolation-filters="sRGB">
<feFlood flood-opacity="0" result="BackgroundImageFix"/>
<feColorMatrix in="SourceAlpha" type="matrix" values="0 0 0 0 0 0 0 0 0 0 0 0 0 0 0 0 0 0 127 0" result="hardAlpha"/>
<feOffset dy="4"/>
<feGaussianBlur stdDeviation="2"/>
<feComposite in2="hardAlpha" operator="out"/>
<feColorMatrix type="matrix" values="0 0 0 0 0 0 0 0 0 0 0 0 0 0 0 0 0 0 0.25 0"/>
<feBlend mode="normal" in2="BackgroundImageFix" result="effect1_dropShadow_397_1179"/>
<feBlend mode="normal" in="SourceGraphic" in2="effect1_dropShadow_397_1179" result="shape"/>
</filter>
</defs>
</svg>
