<svg width="80" height="80" viewBox="0 0 80 80" fill="none" xmlns="http://www.w3.org/2000/svg">
<path d="M15.28 42.8883C12.7467 42.8883 10.5733 42.4749 8.76 41.6483C6.97333 40.8216 5.57333 39.6083 4.56 38.0083C3.57333 36.4083 3.02667 34.4216 2.92 32.0483C2.89333 30.9549 2.88 29.7816 2.88 28.5283C2.88 27.2749 2.89333 26.0749 2.92 24.9283C3.02667 22.6083 3.58667 20.6483 4.6 19.0483C5.61333 17.4216 7.02667 16.1949 8.84 15.3683C10.6533 14.5149 12.8 14.0883 15.28 14.0883C17.04 14.0883 18.6667 14.3149 20.16 14.7683C21.6533 15.1949 22.96 15.8349 24.08 16.6883C25.2 17.5149 26.0667 18.5283 26.68 19.7283C27.32 20.9016 27.6533 22.2349 27.68 23.7283C27.7067 23.9683 27.6267 24.1683 27.44 24.3283C27.28 24.4883 27.08 24.5683 26.84 24.5683H21.44C21.0933 24.5683 20.8267 24.5016 20.64 24.3683C20.4533 24.2083 20.2933 23.9283 20.16 23.5283C19.7867 22.1149 19.1733 21.1549 18.32 20.6483C17.4933 20.1149 16.4667 19.8483 15.24 19.8483C13.7733 19.8483 12.6133 20.2616 11.76 21.0883C10.9067 21.8883 10.44 23.2349 10.36 25.1283C10.28 27.3149 10.28 29.5549 10.36 31.8483C10.44 33.7416 10.9067 35.1016 11.76 35.9283C12.6133 36.7283 13.7733 37.1283 15.24 37.1283C16.4667 37.1283 17.5067 36.8616 18.36 36.3283C19.2133 35.7949 19.8133 34.8349 20.16 33.4483C20.2667 33.0483 20.4133 32.7816 20.6 32.6483C20.8133 32.4883 21.0933 32.4083 21.44 32.4083H26.84C27.08 32.4083 27.28 32.4883 27.44 32.6483C27.6267 32.8083 27.7067 33.0083 27.68 33.2483C27.6533 34.7416 27.32 36.0883 26.68 37.2883C26.0667 38.4616 25.2 39.4749 24.08 40.3283C22.96 41.1549 21.6533 41.7949 20.16 42.2483C18.6667 42.6749 17.04 42.8883 15.28 42.8883ZM42.6459 42.8883C40.7259 42.8883 39.0593 42.6216 37.6459 42.0883C36.2326 41.5283 35.0593 40.7683 34.1259 39.8083C33.2193 38.8483 32.5259 37.7283 32.0459 36.4483C31.5659 35.1683 31.2859 33.7949 31.2059 32.3283C31.1793 31.6083 31.1526 30.7949 31.1259 29.8883C31.1259 28.9549 31.1259 28.0216 31.1259 27.0883C31.1526 26.1283 31.1793 25.2749 31.2059 24.5283C31.2859 23.0616 31.5659 21.7016 32.0459 20.4483C32.5526 19.1683 33.2726 18.0616 34.2059 17.1283C35.1659 16.1683 36.3393 15.4216 37.7259 14.8883C39.1393 14.3549 40.7793 14.0883 42.6459 14.0883C44.5393 14.0883 46.1793 14.3549 47.5659 14.8883C48.9526 15.4216 50.1126 16.1683 51.0459 17.1283C52.0059 18.0616 52.7393 19.1683 53.2459 20.4483C53.7526 21.7016 54.0326 23.0616 54.0859 24.5283C54.1393 25.2749 54.1659 26.1283 54.1659 27.0883C54.1926 28.0216 54.1926 28.9549 54.1659 29.8883C54.1659 30.7949 54.1393 31.6083 54.0859 32.3283C54.0326 33.7949 53.7526 35.1683 53.2459 36.4483C52.7659 37.7283 52.0593 38.8483 51.1259 39.8083C50.2193 40.7683 49.0593 41.5283 47.6459 42.0883C46.2593 42.6216 44.5926 42.8883 42.6459 42.8883ZM42.6459 37.0883C44.0326 37.0883 45.0326 36.6483 45.6459 35.7683C46.2859 34.8616 46.6193 33.6483 46.6459 32.1283C46.6993 31.3549 46.7259 30.5416 46.7259 29.6883C46.7526 28.8349 46.7526 27.9816 46.7259 27.1283C46.7259 26.2749 46.6993 25.4883 46.6459 24.7683C46.6193 23.3016 46.2859 22.1149 45.6459 21.2083C45.0326 20.3016 44.0326 19.8349 42.6459 19.8083C41.2593 19.8349 40.2593 20.3016 39.6459 21.2083C39.0326 22.1149 38.6993 23.3016 38.6459 24.7683C38.6193 25.4883 38.5926 26.2749 38.5659 27.1283C38.5659 27.9816 38.5659 28.8349 38.5659 29.6883C38.5926 30.5416 38.6193 31.3549 38.6459 32.1283C38.6993 33.6483 39.0459 34.8616 39.6859 35.7683C40.3259 36.6483 41.3126 37.0883 42.6459 37.0883Z" fill="#00D5E4"/>
<path d="M58.943 50.4883C58.7303 50.4883 58.5467 50.4206 58.392 50.2853C58.2567 50.1499 58.189 49.9759 58.189 49.7633V47.7043C58.189 47.5689 58.2277 47.3659 58.305 47.0953C58.3823 46.8053 58.5853 46.5346 58.914 46.2833L61.93 43.3253C63.4767 42.1459 64.743 41.1503 65.729 40.3383C66.7343 39.5069 67.4787 38.7723 67.962 38.1343C68.4453 37.4963 68.687 36.8969 68.687 36.3363C68.687 35.6789 68.513 35.1376 68.165 34.7123C67.8363 34.2676 67.2563 34.0453 66.425 34.0453C65.8643 34.0453 65.3907 34.1709 65.004 34.4223C64.6367 34.6543 64.3563 34.9636 64.163 35.3503C63.9697 35.7369 63.8343 36.1333 63.757 36.5393C63.6797 36.7906 63.5443 36.9646 63.351 37.0613C63.177 37.1579 62.9837 37.2063 62.771 37.2063H59.146C58.972 37.2063 58.827 37.1483 58.711 37.0323C58.595 36.9163 58.537 36.7713 58.537 36.5973C58.5563 35.6693 58.7497 34.7993 59.117 33.9873C59.5037 33.1753 60.0353 32.4599 60.712 31.8413C61.408 31.2033 62.2297 30.7103 63.177 30.3623C64.1437 30.0143 65.2263 29.8403 66.425 29.8403C68.0683 29.8403 69.4603 30.1013 70.601 30.6233C71.761 31.1453 72.6407 31.8799 73.24 32.8273C73.8393 33.7553 74.139 34.8476 74.139 36.1043C74.139 37.0516 73.9263 37.9409 73.501 38.7723C73.095 39.5843 72.5053 40.3673 71.732 41.1213C70.978 41.8559 70.079 42.6196 69.035 43.4123L66.367 46.1093H73.82C74.0327 46.1093 74.2067 46.1769 74.342 46.3123C74.4967 46.4476 74.574 46.6216 74.574 46.8343V49.7633C74.574 49.9759 74.4967 50.1499 74.342 50.2853C74.2067 50.4206 74.0327 50.4883 73.82 50.4883H58.943Z" fill="#00D5E4"/>
</svg>
