<svg width="80" height="80" viewBox="0 0 80 80" fill="none" xmlns="http://www.w3.org/2000/svg">
<path d="M54.2006 19.0785L51.3897 22.1185C49.3187 20.6789 47.1003 19.7192 44.7332 19.2393V14.28C44.7332 13.9597 44.5857 13.6406 44.4371 13.3203C44.1409 13 43.8458 13 43.5497 13H37.3367C36.5969 13 36.1532 13.6395 36.1532 14.28V19.4002C34.0822 19.88 32.0112 20.8398 30.0879 22.1198L27.1296 18.9204C26.6859 18.4405 25.7985 18.4405 25.3548 18.9204L20.9167 23.7202C20.473 24.2001 20.473 25.1599 20.9167 25.6397L23.875 28.8392C22.6914 30.9193 21.8041 33.1591 21.2128 35.5586H16.1836C15.4437 35.5586 15 36.1981 15 36.8386V43.5581C15 43.8784 15.1476 44.1975 15.2961 44.5178C15.4437 44.8381 15.8874 44.8381 16.1836 44.8381H21.0652C21.5089 47.3982 22.3963 49.7974 23.7273 52.1981L20.9164 55.2381C20.4727 55.718 20.4727 56.6777 20.9164 57.1576L25.3545 61.9575C25.7982 62.4373 26.6856 62.4373 27.1293 61.9575L29.9402 58.9174C31.8636 60.1975 33.9345 61.1572 36.0055 61.6371V66.4369C36.0055 66.7572 36.1531 67.0764 36.3016 67.3967C36.5978 67.717 36.8929 67.717 37.1891 67.717H43.402C43.6981 67.717 43.9933 67.5574 44.2894 67.3967C44.5856 67.0764 44.5856 66.7572 44.5856 66.4369V61.7979C46.9526 61.318 49.3198 60.1976 51.3907 58.7579L53.9054 61.4775C54.3491 61.9574 55.2365 61.9574 55.6802 61.4775L60.1183 56.6776C60.562 56.1978 60.562 55.238 60.1183 54.7581L57.4561 51.8789C58.7872 49.6392 59.6746 47.2399 60.1183 44.6798H63.8164C64.1126 44.6798 64.4077 44.5203 64.7039 44.3596C65 44.0393 65 43.7201 65 43.3998V36.6804C65 36.3601 64.8524 36.0409 64.7039 35.7206C64.4077 35.4003 64.1126 35.4003 63.8164 35.4003H59.9706C59.5269 33.1606 58.6395 30.9207 57.456 28.8406L60.2669 25.8006C60.7106 25.3207 60.7106 24.361 60.2669 23.8811L55.8288 19.0812C55.5316 18.4395 54.7928 18.4395 54.2005 19.079L54.2006 19.0785ZM49.4674 49.6359C44.7332 54.7561 36.8931 54.7561 32.1599 49.6359C27.4257 44.5158 27.4257 36.0365 32.1599 30.9175C36.8941 25.7973 44.7343 25.7973 49.4674 30.9175C54.2006 36.0376 54.2006 44.5169 49.4674 49.6359Z" fill="#00D5E4"/>
<line x1="16.0607" y1="15.9393" x2="62.2368" y2="62.1155" stroke="#00D5E4" stroke-width="3"/>
<line x1="66.067" y1="20.1157" x2="15.962" y2="61.9962" stroke="#00D5E4" stroke-width="3"/>
</svg>
