<svg width="115" height="114" viewBox="0 0 115 114" fill="none" xmlns="http://www.w3.org/2000/svg">
<g filter="url(#filter0_d_397_1185)">
<path d="M4.30814 37.8641C8.17411 27.0169 15.2349 17.595 24.5606 10.8393C33.8863 4.08369 45.0396 0.311087 56.5514 0.0184301C68.0632 -0.274227 79.3937 2.92678 89.0507 9.19985C98.7076 15.4729 106.238 24.5239 110.65 35.1606L58 57L4.30814 37.8641Z" fill="white"/>
<circle cx="57.7525" cy="56.8946" r="44.9512" fill="#6AC9E3"/>
<path d="M48.0826 53.0164C47.9653 53.0164 47.8693 52.979 47.7946 52.9044C47.72 52.819 47.6826 52.723 47.6826 52.6164V42.2164C47.6826 42.099 47.72 42.003 47.7946 41.9284C47.8693 41.8537 47.9653 41.8164 48.0826 41.8164H49.7786C49.96 41.8164 50.088 41.859 50.1626 41.9444C50.248 42.019 50.3013 42.0777 50.3226 42.1204L54.2266 48.2644V42.2164C54.2266 42.099 54.264 42.003 54.3386 41.9284C54.4133 41.8537 54.5093 41.8164 54.6266 41.8164H56.5466C56.664 41.8164 56.76 41.8537 56.8346 41.9284C56.9093 42.003 56.9466 42.099 56.9466 42.2164V52.6004C56.9466 52.7177 56.9093 52.819 56.8346 52.9044C56.76 52.979 56.664 53.0164 56.5466 53.0164H54.8346C54.664 53.0164 54.536 52.9737 54.4506 52.8884C54.376 52.803 54.328 52.7444 54.3066 52.7124L50.4026 46.7924V52.6164C50.4026 52.723 50.3653 52.819 50.2906 52.9044C50.216 52.979 50.12 53.0164 50.0026 53.0164H48.0826ZM63.7586 53.1764C62.7773 53.1764 61.924 53.0164 61.1986 52.6964C60.4733 52.3764 59.908 51.8964 59.5026 51.2564C59.0973 50.6057 58.8733 49.795 58.8306 48.8244C58.82 48.3657 58.8146 47.907 58.8146 47.4484C58.8146 46.979 58.82 46.515 58.8306 46.0564C58.8733 45.0964 59.0973 44.291 59.5026 43.6404C59.9186 42.979 60.4893 42.483 61.2146 42.1524C61.9506 41.8217 62.7986 41.6564 63.7586 41.6564C64.7293 41.6564 65.5773 41.8217 66.3026 42.1524C67.028 42.483 67.5986 42.979 68.0146 43.6404C68.4306 44.291 68.6546 45.0964 68.6866 46.0564C68.708 46.515 68.7186 46.979 68.7186 47.4484C68.7186 47.907 68.708 48.3657 68.6866 48.8244C68.6546 49.795 68.4306 50.6057 68.0146 51.2564C67.6093 51.8964 67.044 52.3764 66.3186 52.6964C65.5933 53.0164 64.74 53.1764 63.7586 53.1764ZM63.7586 50.8724C64.324 50.8724 64.7826 50.7017 65.1346 50.3604C65.4973 50.019 65.6893 49.475 65.7106 48.7284C65.732 48.259 65.7426 47.8164 65.7426 47.4004C65.7426 46.9844 65.732 46.5524 65.7106 46.1044C65.6893 45.603 65.5933 45.1977 65.4226 44.8884C65.2626 44.5684 65.0386 44.3337 64.7506 44.1844C64.4626 44.035 64.132 43.9604 63.7586 43.9604C63.396 43.9604 63.0706 44.035 62.7826 44.1844C62.4946 44.3337 62.2653 44.5684 62.0946 44.8884C61.924 45.1977 61.828 45.603 61.8066 46.1044C61.796 46.5524 61.7906 46.9844 61.7906 47.4004C61.7906 47.8164 61.796 48.259 61.8066 48.7284C61.8386 49.475 62.0306 50.019 62.3826 50.3604C62.7453 50.7017 63.204 50.8724 63.7586 50.8724ZM46.3095 71.1764C45.4882 71.1764 44.7788 71.0804 44.1815 70.8884C43.5948 70.6857 43.1148 70.4297 42.7415 70.1204C42.3682 69.8004 42.0908 69.4644 41.9095 69.1124C41.7282 68.7497 41.6322 68.403 41.6215 68.0724C41.6215 67.9764 41.6535 67.8964 41.7175 67.8324C41.7922 67.7684 41.8775 67.7364 41.9735 67.7364H44.0695C44.1868 67.7364 44.2828 67.763 44.3575 67.8164C44.4322 67.859 44.5015 67.9337 44.5655 68.0404C44.6508 68.243 44.7735 68.4084 44.9335 68.5364C45.1042 68.6644 45.3068 68.755 45.5415 68.8084C45.7762 68.851 46.0322 68.8724 46.3095 68.8724C46.8535 68.8724 47.2748 68.7497 47.5735 68.5044C47.8828 68.2484 48.0375 67.9017 48.0375 67.4644C48.0375 67.0057 47.8935 66.6804 47.6055 66.4884C47.3175 66.2857 46.9068 66.1844 46.3735 66.1844H44.5975C44.4802 66.1844 44.3842 66.147 44.3095 66.0724C44.2348 65.9977 44.1975 65.9017 44.1975 65.7844V64.8884C44.1975 64.7604 44.2242 64.6484 44.2775 64.5524C44.3308 64.4564 44.3895 64.387 44.4535 64.3444L47.0775 62.1204H42.6295C42.5228 62.1204 42.4268 62.083 42.3415 62.0084C42.2668 61.9337 42.2295 61.8377 42.2295 61.7204V60.2164C42.2295 60.099 42.2668 60.003 42.3415 59.9284C42.4268 59.8537 42.5228 59.8164 42.6295 59.8164H49.9895C50.1068 59.8164 50.2028 59.8537 50.2775 59.9284C50.3628 60.003 50.4055 60.099 50.4055 60.2164V61.5764C50.4055 61.6937 50.3788 61.8004 50.3255 61.8964C50.2722 61.9817 50.2135 62.051 50.1495 62.1044L47.7175 64.3604L47.8295 64.3924C48.4482 64.467 48.9922 64.627 49.4615 64.8724C49.9415 65.1177 50.3202 65.4697 50.5975 65.9284C50.8748 66.3764 51.0135 66.947 51.0135 67.6404C51.0135 68.3657 50.8055 68.995 50.3895 69.5284C49.9842 70.051 49.4295 70.4564 48.7255 70.7444C48.0215 71.0324 47.2162 71.1764 46.3095 71.1764ZM56.7764 71.1924C55.7737 71.1924 54.9364 71.0377 54.2644 70.7284C53.5924 70.4084 53.0804 69.9977 52.7284 69.4964C52.3871 68.9844 52.2057 68.435 52.1844 67.8484C52.1844 67.7524 52.2164 67.6724 52.2804 67.6084C52.3444 67.5444 52.4244 67.5124 52.5204 67.5124H54.6644C54.8031 67.5124 54.9097 67.539 54.9844 67.5924C55.0697 67.6457 55.1337 67.7204 55.1764 67.8164C55.2724 68.0617 55.4004 68.2644 55.5604 68.4244C55.7204 68.5844 55.9017 68.7017 56.1044 68.7764C56.3071 68.851 56.5364 68.8884 56.7924 68.8884C57.0911 68.8884 57.3684 68.8244 57.6244 68.6964C57.8804 68.5684 58.0831 68.3817 58.2324 68.1364C58.3924 67.8804 58.4724 67.5764 58.4724 67.2244C58.4724 66.9044 58.3977 66.627 58.2484 66.3924C58.1097 66.1577 57.9124 65.971 57.6564 65.8324C57.4111 65.6937 57.1231 65.6244 56.7924 65.6244C56.5364 65.6244 56.3284 65.6564 56.1684 65.7204C56.0084 65.7737 55.8751 65.843 55.7684 65.9284C55.6617 66.0137 55.5657 66.0884 55.4804 66.1524C55.3951 66.2057 55.2991 66.2324 55.1924 66.2324H53.0964C53.0004 66.2324 52.9151 66.2004 52.8404 66.1364C52.7764 66.0617 52.7444 65.9764 52.7444 65.8804L53.3204 60.2964C53.3417 60.1364 53.4004 60.019 53.4964 59.9444C53.5924 59.859 53.7097 59.8164 53.8484 59.8164H60.2644C60.3817 59.8164 60.4777 59.8537 60.5524 59.9284C60.6377 60.003 60.6804 60.099 60.6804 60.2164V61.7204C60.6804 61.8377 60.6377 61.9337 60.5524 62.0084C60.4777 62.083 60.3817 62.1204 60.2644 62.1204H55.6244L55.4164 64.1844C55.6511 64.035 55.9231 63.907 56.2324 63.8004C56.5524 63.6937 56.9897 63.6404 57.5444 63.6404C58.0457 63.6404 58.5257 63.731 58.9844 63.9124C59.4537 64.083 59.8697 64.3284 60.2324 64.6484C60.6057 64.9684 60.8937 65.3524 61.0964 65.8004C61.3097 66.2377 61.4164 66.7337 61.4164 67.2884C61.4164 68.0457 61.2297 68.7177 60.8564 69.3044C60.4937 69.891 59.9657 70.355 59.2724 70.6964C58.5791 71.027 57.7471 71.1924 56.7764 71.1924ZM63.7921 71.0164C63.5468 71.0164 63.4241 70.9097 63.4241 70.6964C63.4241 70.6324 63.4455 70.5737 63.4881 70.5204L71.3921 60.1204C71.4668 60.0244 71.5415 59.9497 71.6161 59.8964C71.6908 59.843 71.8028 59.8164 71.9521 59.8164H73.0881C73.3335 59.8164 73.4561 59.923 73.4561 60.1364C73.4561 60.2004 73.4348 60.259 73.3921 60.3124L65.4881 70.7124C65.4135 70.8084 65.3388 70.883 65.2641 70.9364C65.1895 70.9897 65.0775 71.0164 64.9281 71.0164H63.7921ZM71.8401 71.0964C71.1148 71.0964 70.5335 70.9044 70.0961 70.5204C69.6695 70.1364 69.4295 69.6244 69.3761 68.9844C69.3655 68.707 69.3601 68.4617 69.3601 68.2484C69.3601 68.035 69.3655 67.779 69.3761 67.4804C69.4188 66.8297 69.6481 66.3124 70.0641 65.9284C70.4908 65.5337 71.0828 65.3364 71.8401 65.3364C72.6081 65.3364 73.2001 65.5337 73.6161 65.9284C74.0321 66.3124 74.2615 66.8297 74.3041 67.4804C74.3255 67.779 74.3361 68.035 74.3361 68.2484C74.3361 68.4617 74.3255 68.707 74.3041 68.9844C74.2615 69.6244 74.0215 70.1364 73.5841 70.5204C73.1468 70.9044 72.5655 71.0964 71.8401 71.0964ZM71.8401 69.6884C72.0215 69.6884 72.1601 69.651 72.2561 69.5764C72.3628 69.491 72.4428 69.3897 72.4961 69.2724C72.5495 69.1444 72.5815 69.0164 72.5921 68.8884C72.6135 68.643 72.6241 68.419 72.6241 68.2164C72.6241 68.0137 72.6135 67.795 72.5921 67.5604C72.5815 67.3577 72.5175 67.1764 72.4001 67.0164C72.2935 66.8457 72.1068 66.7604 71.8401 66.7604C71.5841 66.7604 71.3975 66.8457 71.2801 67.0164C71.1735 67.1764 71.1148 67.3577 71.1041 67.5604C71.0935 67.795 71.0881 68.0137 71.0881 68.2164C71.0881 68.419 71.0935 68.643 71.1041 68.8884C71.1148 69.0164 71.1415 69.1444 71.1841 69.2724C71.2375 69.3897 71.3175 69.491 71.4241 69.5764C71.5308 69.651 71.6695 69.6884 71.8401 69.6884ZM65.0721 65.4644C64.3361 65.4644 63.7495 65.2777 63.3121 64.9044C62.8855 64.5204 62.6508 64.0084 62.6081 63.3684C62.5868 63.091 62.5761 62.8457 62.5761 62.6324C62.5868 62.419 62.5975 62.163 62.6081 61.8644C62.6401 61.2244 62.8641 60.7124 63.2801 60.3284C63.7068 59.9337 64.3041 59.7364 65.0721 59.7364C65.8401 59.7364 66.4321 59.9337 66.8481 60.3284C67.2641 60.7124 67.4881 61.2244 67.5201 61.8644C67.5415 62.163 67.5521 62.419 67.5521 62.6324C67.5521 62.8457 67.5415 63.091 67.5201 63.3684C67.4881 64.0084 67.2535 64.5204 66.8161 64.9044C66.3788 65.2777 65.7975 65.4644 65.0721 65.4644ZM65.0721 64.0724C65.2428 64.0724 65.3815 64.035 65.4881 63.9604C65.5948 63.8857 65.6748 63.7897 65.7281 63.6724C65.7815 63.5444 65.8081 63.4164 65.8081 63.2884C65.8295 63.043 65.8401 62.819 65.8401 62.6164C65.8401 62.4137 65.8295 62.195 65.8081 61.9604C65.7975 61.7577 65.7335 61.5764 65.6161 61.4164C65.5095 61.2457 65.3281 61.1604 65.0721 61.1604C64.8055 61.1604 64.6188 61.2457 64.5121 61.4164C64.4055 61.5764 64.3415 61.7577 64.3201 61.9604C64.3095 62.195 64.3041 62.4137 64.3041 62.6164C64.3041 62.819 64.3095 63.043 64.3201 63.2884C64.3415 63.4164 64.3735 63.5444 64.4161 63.6724C64.4588 63.7897 64.5335 63.8857 64.6401 63.9604C64.7468 64.035 64.8908 64.0724 65.0721 64.0724Z" fill="white"/>
</g>
<defs>
<filter id="filter0_d_397_1185" x="0.308105" y="0" width="114.342" height="109.846" filterUnits="userSpaceOnUse" color-interpolation-filters="sRGB">
<feFlood flood-opacity="0" result="BackgroundImageFix"/>
<feColorMatrix in="SourceAlpha" type="matrix" values="0 0 0 0 0 0 0 0 0 0 0 0 0 0 0 0 0 0 127 0" result="hardAlpha"/>
<feOffset dy="4"/>
<feGaussianBlur stdDeviation="2"/>
<feComposite in2="hardAlpha" operator="out"/>
<feColorMatrix type="matrix" values="0 0 0 0 0 0 0 0 0 0 0 0 0 0 0 0 0 0 0.25 0"/>
<feBlend mode="normal" in2="BackgroundImageFix" result="effect1_dropShadow_397_1185"/>
<feBlend mode="normal" in="SourceGraphic" in2="effect1_dropShadow_397_1185" result="shape"/>
</filter>
</defs>
</svg>
