<svg width="80" height="80" viewBox="0 0 80 80" fill="none" xmlns="http://www.w3.org/2000/svg">
<path d="M21.6035 32.4822L22.6366 32.7206L22.9544 31.5286C23.2861 31.5928 23.5749 31.795 23.7491 32.0848C23.9364 32.4339 24.0701 32.8089 24.1464 33.1973C24.3053 34.0746 24.6884 34.8959 25.2589 35.5813C26.0493 36.3326 27.1093 36.7336 28.1991 36.6938L29.1526 36.8527L31.1392 38.2036C30.6096 39.1444 30.44 40.2459 30.6625 41.3027L30.9008 41.9384L31.5366 42.4152L37.7348 48.6134C38.2318 49.1214 38.6355 49.7131 38.9267 50.3616V50.1232L39.1651 49.9643C39.8722 49.6088 40.4337 49.0189 40.7544 48.2956C40.9662 47.679 41.0996 47.0383 41.1517 46.3884C41.5799 46.3043 41.9769 46.1039 42.299 45.8098C42.6215 45.5154 42.8567 45.1386 42.9794 44.7197C43.1107 44.2599 43.27 43.809 43.4562 43.3688C43.933 42.3357 44.2509 41.3822 43.6946 40.7464C43.1951 40.3406 42.5871 40.0919 41.9464 40.0313C41.2408 39.9369 40.5635 39.6928 39.9598 39.3161L39.8009 39.1572C39.0062 38.2036 37.7348 36.7732 36.3044 36.217L35.5098 35.9786C34.5856 35.7388 33.702 35.3642 32.8875 34.8661L31.9339 34.2304C31.1811 33.8213 30.4862 33.3137 29.8678 32.7206C29.7657 32.574 29.6851 32.4133 29.6294 32.2438H31.2187C32.3312 32.4027 33.7616 32.5616 34.4768 31.2902C35.1919 30.0188 37.3375 27.4759 38.0527 27.4759C38.6167 27.4763 39.1648 27.289 39.6107 26.9438C40.0566 26.5986 40.3752 26.1147 40.516 25.5687C40.6118 25.2193 40.5852 24.8472 40.4408 24.5148C40.2961 24.1824 40.0424 23.9096 39.7214 23.7411C38.6883 23.2643 37.3375 22.5491 36.225 23.4232L35.6687 23.9795C35.1919 24.5357 35.1125 24.5357 34.7946 24.3768L34.3178 24.1384C34.879 23.6677 35.2699 23.0256 35.4303 22.3107C35.5751 21.8322 35.5176 21.3153 35.2714 20.8804C34.9606 20.4515 34.5115 20.1429 34 20.0063C36.6468 19.0414 39.4815 18.7043 42.2806 19.0215C45.0799 19.3386 47.7675 20.3014 50.1312 21.834C49.438 22.0801 48.8311 22.5218 48.383 23.1054C47.8126 23.6861 47.1719 24.1934 46.4758 24.6152C45.125 25.5688 44.1714 26.2045 44.1714 27.0786C44.1714 27.9527 46.6348 29.4625 48.9392 29.4625C50.1273 29.3575 51.2856 29.0343 52.3562 28.509C53.7071 27.9527 55.058 27.3965 55.8526 27.8732H56.0116C56.6969 29.0006 57.2564 30.1997 57.6803 31.4491H56.1705C55.2811 31.3459 54.4031 31.1597 53.5482 30.8929C51.9589 30.4956 50.3696 30.0188 49.1776 30.2572C48.0552 30.5761 47.0474 31.2093 46.273 32.0824C45.4985 32.9554 44.9902 34.0314 44.8071 35.184C44.5687 38.0447 45.8401 38.8393 47.0321 38.9982C47.7214 39.0543 48.4152 39.0277 49.0982 38.9188C49.7782 38.784 50.4757 38.757 51.1642 38.8393C51.3232 39.187 51.3785 39.5733 51.3232 39.9518C51.3107 40.4598 51.364 40.9675 51.4821 41.4616H51.7205C52.4346 41.4503 53.1324 41.6734 53.7071 42.0973C54.3084 42.5805 54.7284 43.2524 54.8991 44.0045V43.8456L56.0116 35.4223C56.1027 34.6472 56.4628 33.9285 57.029 33.3914C57.5952 32.8543 58.332 32.5326 59.1107 32.4822H59.5875C58.5108 28.1865 56.03 24.374 52.5386 21.6496C49.0475 18.9255 44.7457 17.4458 40.3174 17.4458C35.8891 17.4458 31.5873 18.9255 28.0963 21.6496C24.6048 24.3741 22.124 28.1866 21.0474 32.4822H21.6035Z" fill="#00D5E4"/>
<path d="M41.3105 57.1161V55.5269H39.4033V57.1161H41.3105Z" fill="#00D5E4"/>
<path d="M28.2786 57.9107V62.6785C28.2786 62.8892 28.3623 63.0914 28.5113 63.2404C28.6603 63.3894 28.8625 63.4732 29.0732 63.4732H37.0196C37.2303 63.4732 37.4326 63.3894 37.5816 63.2404C37.7305 63.0914 37.8143 62.8892 37.8143 62.6785V52.9839C37.8228 51.7599 37.3354 50.5847 36.4634 49.7258L30.3446 43.6071C30.0427 43.2871 29.6351 43.0867 29.197 43.0427C28.7592 42.999 28.32 43.1147 27.9607 43.3687C27.6287 43.6216 27.3981 43.9849 27.3108 44.3928C27.2232 44.8012 27.2849 45.2269 27.4839 45.5937L29.2321 47.4214C30.4237 48.7488 31.488 50.1856 32.4107 51.7124C30.8839 50.7898 29.4471 49.7255 28.1196 48.5339C26.7857 47.3813 25.5374 46.1329 24.3848 44.7991C24.2965 44.6838 24.2415 44.5461 24.2259 44.4017L23.0339 35.6607C22.9981 35.2513 22.8193 34.8674 22.5284 34.5769C22.2379 34.286 21.854 34.1072 21.4446 34.0713C20.9742 34.0483 20.5162 34.2253 20.1831 34.5581C19.8503 34.8912 19.6733 35.3492 19.6963 35.8196L20.3321 47.2624L28.1196 57.4339C28.2228 57.5715 28.2785 57.7386 28.2785 57.9107H28.2786Z" fill="#00D5E4"/>
<path d="M57.6802 35.6607L56.5677 44.3223C56.5521 44.4666 56.4972 44.6043 56.4088 44.7196C55.2563 46.0535 54.0078 47.3019 52.674 48.4544C51.3465 49.646 49.9097 50.7103 48.3829 51.633C49.3056 50.1062 50.3699 48.6694 51.5615 47.3419L53.2302 45.5142C53.4293 45.1474 53.491 44.7217 53.4034 44.3134C53.3161 43.9054 53.0855 43.5421 52.7535 43.2892C52.3941 43.0352 51.9549 42.9196 51.5172 42.9632C51.0791 43.0072 50.6714 43.2076 50.3695 43.5276L44.1713 49.7258C43.2993 50.5847 42.8119 51.7599 42.8204 52.9839V62.6785C42.8204 62.8892 42.9041 63.0914 43.0531 63.2404C43.2021 63.3894 43.4043 63.4732 43.6151 63.4732H51.5615C51.7722 63.4732 51.9744 63.3894 52.1234 63.2404C52.2724 63.0914 52.3561 62.8892 52.3561 62.6785V57.9107C52.3561 57.7386 52.4118 57.5715 52.5151 57.4339L60.3026 47.2624L61.0177 35.8196C61.0408 35.3492 60.8638 34.8912 60.531 34.5581C60.1979 34.2253 59.7399 34.0483 59.2695 34.0713C58.8601 34.1072 58.4763 34.286 58.1857 34.5769C57.8948 34.8674 57.716 35.2512 57.6802 35.6607H57.6802Z" fill="#00D5E4"/>
</svg>
