<svg width="80" height="80" viewBox="0 0 80 80" fill="none" xmlns="http://www.w3.org/2000/svg">
<path d="M40.5143 15.0049C40.0839 14.9696 39.6592 15.1248 39.3539 15.43L16.3805 38.4005C14.5398 40.2412 14.5398 43.2696 16.3805 45.1103L34.901 63.6195C36.7417 65.4602 39.7701 65.4602 41.6108 63.6195L64.5726 40.6574C64.8767 40.3513 65.0309 39.927 64.9948 39.497L63.1508 18.1957C63.0863 17.4866 62.5242 16.9257 61.8151 16.8629L40.5143 15.0049ZM40.948 17.9922L60.3278 19.684L62.011 39.064L39.5261 61.546C38.8022 62.2698 37.6992 62.2698 36.9755 61.546L18.4665 43.0253C17.7427 42.3014 17.7427 41.1984 18.4665 40.4746L40.948 17.9922ZM52.7824 21.7149C51.3664 21.7149 49.9479 22.2487 48.876 23.3205C46.732 25.4645 46.732 28.9951 48.876 31.1391C51.02 33.2831 54.5362 33.2831 56.6801 31.1391C58.8241 28.9951 58.8241 25.4645 56.6801 23.3205C55.6084 22.2487 54.1984 21.7149 52.7824 21.7149ZM52.7824 24.6418C53.4394 24.6418 54.0963 24.8958 54.6063 25.4058C55.6264 26.4255 55.6264 28.0336 54.6063 29.0538C53.5862 30.0738 51.9785 30.0738 50.9584 29.0538C49.9383 28.0341 49.9383 26.4259 50.9584 25.4058C51.4685 24.8958 52.1254 24.6418 52.7823 24.6418H52.7824ZM45.2771 33.5978C44.8885 33.5978 44.5155 33.7517 44.2402 34.0258L42.9677 35.2982C42.1077 34.5112 40.9407 34.2395 39.8657 34.3733C38.7438 34.5128 37.6646 35.0635 36.7922 35.9359C35.9199 36.8082 35.3778 37.876 35.2383 38.9977C35.0988 40.1196 35.4037 41.3548 36.2724 42.2234L37.7918 43.7429C37.9437 43.8947 38.0368 44.1134 37.9872 44.5127C37.9379 44.9119 37.7069 45.4306 37.2691 45.8684C36.8312 46.3062 36.3126 46.5368 35.9134 46.5865C35.5141 46.6361 35.2925 46.543 35.1407 46.3912L34.6151 45.8684C34.5929 45.843 34.5699 45.8179 34.5457 45.7937L32.2421 43.493H32.2425C31.6689 42.9226 30.7419 42.9226 30.1683 43.493C29.8917 43.7691 29.7366 44.1438 29.7366 44.5344C29.7366 44.9251 29.8917 45.2997 30.1683 45.5755L31.4264 46.8393L30.1597 48.106C29.8823 48.3822 29.7263 48.7572 29.7263 49.1487C29.7263 49.5402 29.8823 49.9156 30.1597 50.1914C30.7333 50.7617 31.6602 50.7617 32.2339 50.1914L33.5465 48.8787C34.3536 49.4343 35.3475 49.6226 36.2723 49.5077C37.3942 49.3682 38.4705 48.8147 39.3428 47.9423C40.2152 47.07 40.7659 45.9936 40.9054 44.8719C41.0449 43.7501 40.7429 42.5264 39.8742 41.6576L39.1647 40.9482C39.1487 40.9305 39.1323 40.9133 39.1159 40.8965L38.3432 40.1382C38.1914 39.9863 38.1098 39.7676 38.1594 39.3684C38.2086 38.9691 38.4397 38.4476 38.8775 38.0097C39.3153 37.5719 39.8225 37.3441 40.2217 37.2945C40.621 37.2448 40.8512 37.338 41.003 37.4898L43.8926 40.388H43.8922C44.1683 40.6646 44.543 40.8201 44.9336 40.8201C45.3243 40.8201 45.6989 40.6646 45.975 40.388C46.2524 40.1119 46.4084 39.7368 46.4084 39.3454C46.4084 38.9539 46.2524 38.5789 45.975 38.3027L45.0473 37.3749L46.314 36.1111C46.5914 35.835 46.7473 35.4599 46.7473 35.0685C46.7473 34.677 46.5914 34.3019 46.314 34.0258C46.0383 33.7517 45.6657 33.5978 45.2771 33.5978L45.2771 33.5978Z" fill="#00D5E4"/>
</svg>
