<svg width="80" height="80" viewBox="0 0 80 80" fill="none" xmlns="http://www.w3.org/2000/svg">
<path d="M63.6859 30.6077H60.227C59.6037 30.6081 59.0065 30.8558 58.5661 31.2961C58.1254 31.7369 57.8777 32.3341 57.8773 32.9574V36.0351H52.6504L47.9453 27.4853C47.6834 27.0026 47.2964 26.5993 46.8247 26.3186C46.3529 26.0375 45.814 25.8892 45.2649 25.8888H39.193V18.92H45.6929C46.4991 18.92 47.1529 18.2662 47.1529 17.46C47.1529 16.6534 46.4991 16 45.6929 16H29.7852C28.9786 16 28.3252 16.6534 28.3252 17.46C28.3252 18.2662 28.9786 18.92 29.7852 18.92H36.2831V25.8888H31.0624C30.2925 25.8908 29.5417 26.1271 28.9102 26.5666C28.2784 27.0066 27.7961 27.6283 27.5272 28.3493L26.5442 31.0009H20.9748C20.1649 31.0013 19.3885 31.3235 18.8161 31.8963C18.2438 32.469 17.9224 33.2455 17.9224 34.0553V40.8392H13.92V31.4388C13.92 30.6326 13.2662 29.9788 12.46 29.9788C11.6534 29.9788 11 30.6326 11 31.4388V53.1458C11 53.952 11.6534 54.6058 12.46 54.6058C13.2662 54.6058 13.92 53.952 13.92 53.1458V43.7589H17.9224V51.2458C17.9228 52.0553 18.2446 52.8313 18.817 53.4036C19.3893 53.976 20.1654 54.2978 20.9747 54.2982H26.7036L31.099 62.1705C31.3646 62.6447 31.7516 63.0398 32.2205 63.3153C32.689 63.5906 33.2226 63.7365 33.766 63.7377H50.1941C51.004 63.7373 51.7804 63.4151 52.3527 62.8423C52.9251 62.2696 53.2465 61.4931 53.2465 60.6833V53.2859H57.8774V56.5192H57.8778C57.8782 57.1424 58.1259 57.7396 58.5667 58.1804C59.007 58.6208 59.6042 58.8685 60.2275 58.8689H63.6869H63.6865C64.9456 58.8681 66.153 58.3662 67.042 57.4749C67.9313 56.5832 68.4295 55.3745 68.4266 54.1153V35.3481C68.4258 34.0909 67.9259 32.886 67.0371 31.9975C66.1486 31.1086 64.9437 30.6088 63.6865 30.608L63.6859 30.6077ZM33.6506 60.7442L28.8368 52.1304C28.5781 51.6684 28.0905 51.382 27.5617 51.3808H20.9742C20.9387 51.3812 20.9049 51.3674 20.8796 51.3425C20.8548 51.3177 20.8409 51.2834 20.8418 51.2484L20.9742 33.9234H27.5617C28.1699 33.9214 28.7129 33.5417 28.9243 32.9714L30.2653 29.3544C30.3903 29.0228 30.7073 28.8028 31.0617 28.8016L45.3832 28.8773L50.3259 37.863V51.8029L50.1935 60.8044L33.6506 60.7442ZM53.2459 50.351V38.9557H57.8768V50.351H53.2459ZM65.5099 54.116C65.5095 54.5983 65.3172 55.0606 64.9762 55.4016C64.6349 55.7426 64.1721 55.934 63.6898 55.934H60.7971V33.5282H63.6861H63.6857C64.1684 33.5282 64.6316 33.7197 64.973 34.0611C65.3144 34.4024 65.5059 34.8656 65.5059 35.3484L65.5099 54.116Z" fill="#00D5E4"/>
<path d="M41.9067 37.0286C42.7129 37.0286 43.3667 36.3748 43.3667 35.5686C43.3667 34.7621 42.7129 34.1086 41.9067 34.1086H33.5611C32.7549 34.1086 32.1011 34.7621 32.1011 35.5686C32.1011 36.3748 32.7549 37.0286 33.5611 37.0286H41.9067Z" fill="#00D5E4"/>
<path d="M43.172 43.1888C43.9781 43.1888 44.632 42.5354 44.632 41.7288C44.632 40.9226 43.9781 40.2688 43.172 40.2688H34.8267C34.0201 40.2688 33.3667 40.9226 33.3667 41.7288C33.3667 42.5354 34.0201 43.1888 34.8267 43.1888H43.172Z" fill="#00D5E4"/>
<path d="M44.4411 49.3509C45.2477 49.3509 45.9011 48.6971 45.9011 47.8909C45.9011 47.0843 45.2477 46.4309 44.4411 46.4309H36.0938C35.2876 46.4309 34.6338 47.0843 34.6338 47.8909C34.6338 48.6971 35.2876 49.3509 36.0938 49.3509H44.4411Z" fill="#00D5E4"/>
<path d="M45.7072 52.5911H37.3599C36.5533 52.5911 35.8999 53.2449 35.8999 54.0511C35.8999 54.8577 36.5533 55.5111 37.3599 55.5111H45.7072C46.5134 55.5111 47.1672 54.8577 47.1672 54.0511C47.1672 53.2449 46.5134 52.5911 45.7072 52.5911Z" fill="#00D5E4"/>
</svg>
