<svg width="47" height="47" viewBox="0 0 47 47" fill="none" xmlns="http://www.w3.org/2000/svg">
<path d="M23.5 0C10.5422 0 0 10.5422 0 23.5C0 36.4569 10.5422 47 23.5 47C36.4569 47 47 36.4569 47 23.5C47 10.5422 36.4588 0 23.5 0ZM29.3442 24.3273H25.521V37.9544H19.8556C19.8556 37.9544 19.8556 30.5085 19.8556 24.3273H17.1626V19.5111H19.8556V16.3959C19.8556 14.1647 20.9158 10.6785 25.573 10.6785L29.7711 10.6946V15.3698C29.7711 15.3698 27.2201 15.3698 26.7241 15.3698C26.2281 15.3698 25.5229 15.6178 25.5229 16.6817V19.512H29.8393L29.3442 24.3273Z" fill="white"/>
</svg>
