<svg width="80" height="80" viewBox="0 0 80 80" fill="none" xmlns="http://www.w3.org/2000/svg">
<g clip-path="url(#clip0_397_1281)">
<path d="M62.8438 48.9921C63.8685 47.6851 64.3599 46.284 64.2971 44.8411C64.2344 43.2518 63.5234 42.0075 62.9379 41.2442C63.6175 39.5504 63.8789 36.8841 61.61 34.8139C59.9475 33.2978 57.1244 32.6182 53.2139 32.8064C50.464 32.9318 48.1637 33.4442 48.0696 33.4651H48.0592C47.5364 33.5592 46.9822 33.6742 46.4176 33.7997C46.3758 33.1305 46.4908 31.468 47.7246 27.7248C49.1884 23.2706 49.1048 19.862 47.4527 17.5826C45.7171 15.1882 42.9463 15 42.1307 15C41.3465 15 40.625 15.3241 40.1127 15.9201C38.9521 17.2689 39.088 19.7574 39.2344 20.9076C37.8542 24.6089 33.9856 33.6847 30.7129 36.2045C30.6501 36.2463 30.5979 36.2986 30.5456 36.3509C29.5836 37.3651 28.9354 38.463 28.4962 39.4249C27.8793 39.0903 27.1788 38.9021 26.426 38.9021H20.0479C17.643 38.9021 15.6982 40.8574 15.6982 43.2518V60.2426C15.6982 62.6474 17.6535 64.5922 20.0479 64.5922H26.426C27.3565 64.5922 28.2244 64.2995 28.9354 63.7976L31.3925 64.0903C31.7689 64.1426 38.4607 64.9895 45.3302 64.8536C46.5744 64.9477 47.7455 65 48.8329 65C50.7045 65 52.3356 64.8536 53.6949 64.5609C56.8944 63.8812 59.0797 62.522 60.188 60.5249C61.0349 58.9983 61.0349 57.4822 60.899 56.5203C62.9797 54.6382 63.3457 52.5575 63.2725 51.0937C63.2307 50.2468 63.0424 49.5253 62.8438 48.9921ZM20.0479 61.7691C19.201 61.7691 18.5213 61.079 18.5213 60.2426V43.2413C18.5213 42.3944 19.2114 41.7148 20.0479 41.7148H26.426C27.2729 41.7148 27.9525 42.4049 27.9525 43.2413V60.2321C27.9525 61.079 27.2624 61.7587 26.426 61.7587H20.0479V61.7691ZM60.1671 47.7687C59.7279 48.2288 59.6443 48.9293 59.9789 49.473C59.9789 49.4835 60.4076 50.2154 60.4598 51.2192C60.533 52.5889 59.8743 53.8018 58.4941 54.8369C58.0027 55.2133 57.8041 55.8616 58.0132 56.4471C58.0132 56.4575 58.4628 57.8377 57.7309 59.1447C57.0303 60.3994 55.4724 61.2986 53.1094 61.8005C51.2169 62.2083 48.6447 62.2815 45.487 62.0305C45.4452 62.0305 45.3929 62.0305 45.3406 62.0305C38.6175 62.1769 31.8212 61.2986 31.748 61.2882H31.7376L30.6815 61.1627C30.7442 60.8699 30.7756 60.5563 30.7756 60.2426V43.2413C30.7756 42.7917 30.7024 42.3526 30.577 41.9448C30.7652 41.2442 31.288 39.6863 32.5217 38.3584C37.2164 34.6361 41.8066 22.0786 42.0052 21.5349C42.0889 21.3153 42.1098 21.0749 42.068 20.8344C41.8902 19.6633 41.9529 18.2309 42.2039 17.8022C42.758 17.8126 44.2532 17.9695 45.1524 19.2137C46.2189 20.688 46.1771 23.3229 45.027 26.8151C43.2704 32.1372 43.124 34.9394 44.5146 36.1731C45.2047 36.79 46.1248 36.8214 46.794 36.5809C47.4318 36.4345 48.0383 36.3091 48.6133 36.215C48.6552 36.2045 48.7074 36.1941 48.7493 36.1836C51.9592 35.4831 57.7099 35.0544 59.707 36.8737C61.4009 38.4212 60.1984 40.4705 60.0625 40.6901C59.6757 41.2756 59.7907 42.0389 60.3135 42.5094C60.3239 42.5199 61.4218 43.555 61.4741 44.9456C61.5159 45.8762 61.0767 46.8277 60.1671 47.7687Z" fill="#00D5E4" stroke="#00D5E4"/>
</g>
<defs>
<clipPath id="clip0_397_1281">
<rect width="50" height="50" fill="white" transform="translate(15 15)"/>
</clipPath>
</defs>
</svg>
