<svg width="80" height="80" viewBox="0 0 80 80" fill="none" xmlns="http://www.w3.org/2000/svg">
<path d="M64.8887 34.3128C64.7575 33.9046 64.5161 33.5417 64.192 33.2651C63.8678 32.9885 63.4737 32.8091 63.0542 32.7474L48.5325 30.609L42.0339 17.2834C41.8463 16.8982 41.556 16.5738 41.1959 16.347C40.8357 16.1202 40.4201 16 39.9959 16C39.5718 16 39.1562 16.1202 38.796 16.347C38.4358 16.5738 38.1455 16.8982 37.9579 17.2834L31.4594 30.609L16.9462 32.7474C16.5264 32.809 16.1321 32.9884 15.8078 33.2653C15.4835 33.5421 15.2422 33.9054 15.1112 34.3139C14.9801 34.7224 14.9646 35.16 15.0664 35.577C15.1681 35.994 15.3831 36.3738 15.687 36.6735L26.1944 47.0472L23.7143 61.6933C23.6416 62.1173 23.6878 62.5535 23.8477 62.9523C24.0076 63.351 24.2747 63.6964 24.6188 63.949C24.9628 64.2017 25.3699 64.3515 25.7938 64.3815C26.2178 64.4115 26.6415 64.3204 27.0169 64.1187L40.0002 57.204L52.9889 64.1187C53.3641 64.3189 53.7872 64.4088 54.2102 64.3781C54.6333 64.3473 55.0394 64.1973 55.3825 63.9448C55.7257 63.6924 55.9922 63.3477 56.1519 62.9498C56.3116 62.5519 56.3581 62.1166 56.2861 61.6933L53.806 47.0461L64.3134 36.6724C64.6172 36.3727 64.8321 35.9928 64.9337 35.5758C65.0354 35.1588 65.0198 34.7213 64.8887 34.3128ZM49.7779 44.5937C49.5139 44.8541 49.3164 45.1755 49.2024 45.5304C49.0885 45.8853 49.0615 46.2629 49.1238 46.6307L51.0276 57.874L41.0581 52.5658C40.7318 52.3922 40.3688 52.3015 40.0002 52.3015C39.6316 52.3015 39.2686 52.3922 38.9423 52.5658L28.9729 57.874L30.8766 46.6307C30.9389 46.2629 30.9119 45.8853 30.798 45.5304C30.684 45.1755 30.4865 44.8541 30.2225 44.5937L22.1568 36.6314L33.3035 34.9915C33.6682 34.9377 34.0145 34.795 34.3127 34.5757C34.611 34.3564 34.8521 34.067 35.0155 33.7324L40.0002 23.5022L44.9849 33.7324C45.1483 34.067 45.3894 34.3564 45.6877 34.5757C45.9859 34.795 46.3322 34.9377 46.6969 34.9915L57.8436 36.6314L49.7779 44.5937Z" fill="#00D5E4"/>
</svg>
