<svg width="47" height="47" viewBox="0 0 47 47" fill="none" xmlns="http://www.w3.org/2000/svg">
<path d="M23.5 0C10.5233 0 0 10.5233 0 23.5C0 36.4767 10.5233 47 23.5 47C36.4767 47 47 36.4767 47 23.5C47 10.5233 36.4767 0 23.5 0ZM16.6712 35.5254H10.9479V18.3067H16.6712V35.5254ZM13.8097 15.9554H13.7724C11.8518 15.9554 10.6097 14.6334 10.6097 12.981C10.6097 11.2914 11.8898 10.0059 13.8477 10.0059C15.8056 10.0059 17.0104 11.2914 17.0477 12.981C17.0477 14.6334 15.8056 15.9554 13.8097 15.9554ZM37.3083 35.5254H31.5857V26.3138C31.5857 23.9988 30.757 22.42 28.6862 22.42C27.1052 22.42 26.1635 23.4849 25.7497 24.513C25.5984 24.8809 25.5615 25.3951 25.5615 25.9097V35.5254H19.8385C19.8385 35.5254 19.9135 19.9221 19.8385 18.3067H25.5615V20.7447C26.322 19.5714 27.6829 17.9025 30.7193 17.9025C34.4848 17.9025 37.3083 20.3635 37.3083 25.6522V35.5254Z" fill="white"/>
</svg>
