<svg width="80" height="80" viewBox="0 0 80 80" fill="none" xmlns="http://www.w3.org/2000/svg">
<g clip-path="url(#clip0_397_1249)">
<path d="M65.3599 52.2137C64.2619 50.2444 61.9874 49.3111 59.819 49.9474L46.4546 53.8742C46.0206 51.6302 44.3928 49.7885 42.1319 49.1096L33.3721 46.475C33.1887 46.4184 32.9901 46.4234 32.8088 46.4853L24.7366 49.2269V47.3613C24.7366 46.8509 24.3232 46.4363 23.8116 46.4363H14.9567C14.4451 46.4363 14.0317 46.8509 14.0317 47.3613V64.1075C14.0317 64.6179 14.4451 65.0325 14.9567 65.0325H23.812C24.3236 65.0325 24.737 64.6179 24.737 64.1075V62.8753C28.4341 64.0613 38.1183 66.6149 42.6926 67.8083C42.8941 67.8612 43.1117 67.8434 43.3021 67.7584L63.1235 58.9312C64.35 58.3845 65.298 57.3401 65.7226 56.0666C66.1471 54.7918 66.0158 53.3878 65.3609 52.215L65.3599 52.2137ZM22.8871 63.1826H15.8819V48.2864H22.8871V63.1826ZM63.9666 55.4811C63.7019 56.2748 63.135 56.9 62.3694 57.2403L42.845 65.9353C36.6178 64.3083 27.0598 61.7406 24.7372 60.944V51.1799L33.1233 48.3319L41.5991 50.8801C43.3529 51.4083 44.5517 52.9337 44.6904 54.7337C44.0003 55.3775 41.7176 57.0722 37.4613 56.2294C36.9629 56.1286 36.4735 56.4561 36.3745 56.9574C36.2754 57.4587 36.6003 57.9452 37.1017 58.0442C38.0461 58.2321 38.9144 58.3114 39.7073 58.3114C43.4432 58.3114 45.5117 56.5436 46.1481 55.8915L60.3391 51.7216C61.6713 51.3314 63.0687 51.9037 63.7439 53.1137C64.151 53.8454 64.2295 54.6853 63.9648 55.4799L63.9666 55.4811Z" fill="#00D5E4"/>
<path d="M20.2126 49.8574H18.5559C18.0442 49.8574 17.6309 50.272 17.6309 50.7824C17.6309 51.2928 18.0442 51.7074 18.5559 51.7074H20.2126C20.7243 51.7074 21.1376 51.2928 21.1376 50.7824C21.1376 50.272 20.7243 49.8574 20.2126 49.8574Z" fill="#00D5E4"/>
<path d="M40 40.0884C47.6506 40.0884 53.875 33.864 53.875 26.2134C53.875 18.5627 47.6506 12.3384 40 12.3384C32.3494 12.3384 26.125 18.5627 26.125 26.2134C26.125 33.864 32.3494 40.0884 40 40.0884ZM40 14.1884C46.6303 14.1884 52.025 19.5831 52.025 26.2134C52.025 32.8437 46.6303 38.2384 40 38.2384C33.3697 38.2384 27.975 32.8437 27.975 26.2134C27.975 19.5831 33.3697 14.1884 40 14.1884Z" fill="#00D5E4"/>
<path d="M37.0909 28.9863L35.3706 34.6953C35.2513 35.0901 35.4078 35.5158 35.7547 35.7397C36.1007 35.9627 36.5521 35.9313 36.8638 35.66L46.087 27.6191C46.31 27.425 46.4264 27.1352 46.4004 26.8411C46.3744 26.5471 46.21 26.2824 45.9565 26.1288L41.9105 23.6932L42.7153 16.9048C42.7644 16.496 42.5369 16.1045 42.1566 15.9439C41.7775 15.7837 41.3381 15.8931 41.078 16.2131L33.8039 25.1707C33.6486 25.3623 33.5764 25.6084 33.6024 25.8533C33.6284 26.0986 33.7523 26.3232 33.9455 26.4769L37.0914 28.9863L37.0909 28.9863ZM40.5015 19.8565L40.0018 24.0682C39.9593 24.4291 40.1323 24.7813 40.4441 24.9701L43.9136 27.0588L38.0696 32.1553L39.0446 28.9207C39.1536 28.5581 39.0318 28.1667 38.7357 27.9309L35.8286 25.613L40.5027 19.8578L40.5015 19.8565Z" fill="#00D5E4"/>
</g>
<defs>
<clipPath id="clip0_397_1249">
<rect width="52" height="55" fill="white" transform="translate(14 12.4883)"/>
</clipPath>
</defs>
</svg>
