<svg width="47" height="47" viewBox="0 0 47 47" fill="none" xmlns="http://www.w3.org/2000/svg">
<path d="M23.5 0C10.5233 0 0 10.5233 0 23.5C0 36.4767 10.5233 47 23.5 47C36.4767 47 47 36.4767 47 23.5C47 10.5233 36.4767 0 23.5 0ZM34.2298 18.3228C34.2402 18.5541 34.2453 18.7864 34.2453 19.0199C34.2453 26.1474 28.8199 34.3665 18.8983 34.3668C15.8522 34.3668 13.0176 33.4739 10.6305 31.9439C11.0526 31.9937 11.4821 32.0185 11.9171 32.0185C14.4444 32.0185 16.7701 31.1564 18.6165 29.7096C16.2552 29.6658 14.2644 28.1063 13.5773 25.9631C13.9062 26.0262 14.2443 26.0606 14.591 26.0606C15.0834 26.0606 15.5603 25.9943 16.0135 25.8706C13.5454 25.3765 11.6862 23.1952 11.6862 20.5833C11.6862 20.5589 11.6862 20.537 11.6869 20.5145C12.4137 20.9186 13.2449 21.1617 14.1299 21.1889C12.6816 20.2226 11.7296 18.5706 11.7296 16.6991C11.7296 15.7109 11.9967 14.785 12.46 13.9879C15.1199 17.2517 19.0952 19.3982 23.5782 19.6237C23.4857 19.2286 23.438 18.8169 23.438 18.3938C23.438 15.4161 25.8537 13.0004 28.8325 13.0004C30.384 13.0004 31.7854 13.6562 32.7697 14.7047C33.9986 14.4623 35.1525 14.0134 36.1949 13.3955C35.7915 14.6545 34.9366 15.7109 33.8228 16.3789C34.914 16.2484 35.9539 15.959 36.9203 15.5294C36.1984 16.6113 35.283 17.5615 34.2298 18.3228Z" fill="white"/>
</svg>
